<?xml version="1.0" standalone="no"?><!DOCTYPE svg PUBLIC "-//W3C//DTD SVG 1.1//EN" "http://www.w3.org/Graphics/SVG/1.1/DTD/svg11.dtd"><svg t="1576253914930" class="icon" viewBox="0 0 1210 1024" version="1.1" xmlns="http://www.w3.org/2000/svg" p-id="8550" xmlns:xlink="http://www.w3.org/1999/xlink" width="236.328125" height="200"><defs><style type="text/css"></style></defs><path d="M954.724848 602.375758l156.703031-152.281213c6.050909-5.895758 16.446061-2.327273 17.392485 5.957819 2.063515 18.369939 3.149576 37.034667 3.149575 55.947636 0 282.763636-235.892364 512-526.894545 512-129.380848 0-247.77697-45.412848-339.471515-120.630303a9.728 9.728 0 0 1-0.558546-14.553212l103.765334-100.848485a10.395152 10.395152 0 0 1 13.513697-0.698182c61.362424 47.010909 138.752 75.093333 222.766545 75.093334 165.050182 0 304.500364-108.404364 347.073939-255.751758a9.650424 9.650424 0 0 1 2.56-4.235636z m-699.267878-180.751516l-156.703031 152.281213c-6.050909 5.880242-16.461576 2.327273-17.376969-5.957819A498.424242 498.424242 0 0 1 78.211879 512C78.227394 229.220848 314.104242 0 605.090909 0c129.396364 0 247.792485 45.412848 339.48703 120.630303a9.728 9.728 0 0 1 0.558546 14.553212l-103.765333 100.83297a10.395152 10.395152 0 0 1-13.529213 0.698182c-61.362424-46.995394-138.736485-75.093333-222.75103-75.093334-165.081212 0-304.500364 108.404364-347.089454 255.751758a9.712485 9.712485 0 0 1-2.544485 4.251151z m268.35006 254.88291c-8.192-1.365333-11.388121-11.139879-5.492363-16.849455L1192.680727 4.313212C1199.13503-1.954909 1210.181818 2.497939 1210.181818 11.372606v230.94303c0 2.637576-1.086061 5.166545-3.009939 7.028364L735.464727 707.739152a10.441697 10.441697 0 0 1-8.998788 2.777212l-202.658909-34.009212z m162.567758-329.076364c8.192 1.380848 11.372606 11.139879 5.492364 16.86497L17.501091 1019.624727C11.046788 1025.908364 0 1021.455515 0 1012.580848V781.653333c0-2.637576 1.086061-5.197576 3.009939-7.059394l471.707152-458.379636a10.441697 10.441697 0 0 1 8.983273-2.792727l202.674424 34.009212z" p-id="8551" fill="#ffffff"></path></svg>